<svg id="Capa_1" enable-background="new 0 0 512 512" height="512" viewBox="0 0 512 512" width="512" xmlns="http://www.w3.org/2000/svg"><g><path d="m254.945 90.004c-79.416.559-145.707 67.058-145.697 146.767.006 44.188 19.642 85.595 53.874 113.606 6.934 5.674 11.23 13.605 12.102 22.127-.429 2.556-.135-.391-.224 63.496 0 8.284 6.716 15 15 15h5.5v.5c0 33.36 27.14 60.5 60.5 60.5s60.5-27.14 60.5-60.5v-.5h5.5c8.284 0 15-6.716 15-15-.099-63.634.234-61.091-.265-63.765.726-8.299 4.692-15.86 11.149-21.051 34.87-28.031 54.868-69.74 54.868-114.433-.001-81.668-66.449-147.35-147.807-146.747zm52.055 299.996v31h-102v-31zm-20.5 61.5c0 16.818-13.682 30.5-30.5 30.5s-30.5-13.682-30.5-30.5v-.5h61zm42.587-123.698c-10.325 8.3-17.447 19.592-20.616 32.198h-105.128c-3.338-12.697-10.662-24.198-21.223-32.841-27.241-22.291-42.867-55.237-42.872-90.392-.008-62.85 53.071-116.322 115.908-116.764.284-.002.565-.003.848-.003 64.499 0 116.748 52.189 116.748 116.751-.001 35.557-15.916 68.744-43.665 91.051z"/><path d="m304.805 206.149-33.805 26.228v-14.377c0-12.456-14.359-19.484-24.195-11.851l-58 45c-6.545 5.078-7.735 14.501-2.656 21.046 5.085 6.555 14.51 7.728 21.046 2.656l33.805-26.228v14.377c0 12.455 14.359 19.485 24.195 11.851l58-45c6.545-5.078 7.735-14.501 2.656-21.046-5.078-6.545-14.5-7.734-21.046-2.656z"/><path d="m256 61c8.284 0 15-6.716 15-15v-31c0-8.284-6.716-15-15-15s-15 6.716-15 15v31c0 8.284 6.716 15 15 15z"/><path d="m109.982 112.695c5.857 5.858 15.355 5.859 21.213 0 5.858-5.858 5.858-15.355 0-21.213l-21.92-21.92c-5.857-5.858-15.355-5.858-21.213 0s-5.858 15.355 0 21.213z"/><path d="m79.5 237.5c0-8.284-6.716-15-15-15h-31c-8.284 0-15 6.716-15 15s6.716 15 15 15h31c8.284 0 15-6.716 15-15z"/><path d="m478.5 222.5h-31c-8.284 0-15 6.716-15 15s6.716 15 15 15h31c8.284 0 15-6.716 15-15s-6.716-15-15-15z"/><path d="m467.303 308.789-28.64-11.863c-7.653-3.171-16.428.464-19.599 8.118-3.17 7.654.464 16.428 8.118 19.599l28.64 11.863c7.683 3.183 16.44-.494 19.599-8.118 3.17-7.655-.464-16.429-8.118-19.599z"/><path d="m168.858 66.317c3.166 7.642 11.934 11.293 19.599 8.118 7.654-3.17 11.288-11.945 8.118-19.599l-11.863-28.64c-3.171-7.653-11.945-11.287-19.599-8.118-7.654 3.17-11.288 11.945-8.118 19.599z"/><path d="m84.817 150.358-28.64-11.863c-7.654-3.171-16.428.464-19.599 8.118-3.17 7.654.464 16.428 8.118 19.599l28.64 11.863c7.683 3.183 16.44-.494 19.599-8.118 3.17-7.654-.464-16.429-8.118-19.599z"/><path d="m402.018 112.695 21.92-21.92c5.858-5.858 5.858-15.355 0-21.213-5.857-5.858-15.355-5.858-21.213 0l-21.92 21.92c-5.858 5.858-5.858 15.355 0 21.213 5.856 5.858 15.355 5.859 21.213 0z"/><path d="m323.543 74.436c7.684 3.182 16.44-.494 19.599-8.118l11.863-28.64c3.17-7.654-.464-16.428-8.118-19.599-7.654-3.169-16.428.464-19.599 8.118l-11.863 28.64c-3.17 7.654.465 16.428 8.118 19.599z"/><path d="m73.337 296.926-28.64 11.863c-7.654 3.17-11.288 11.945-8.118 19.599 3.165 7.641 11.934 11.294 19.599 8.118l28.64-11.863c7.654-3.17 11.288-11.945 8.118-19.599-3.171-7.654-11.944-11.29-19.599-8.118z"/><path d="m419.064 169.957c3.165 7.641 11.934 11.294 19.599 8.118l28.64-11.863c7.654-3.17 11.288-11.945 8.118-19.599s-11.944-11.289-19.599-8.118l-28.64 11.863c-7.653 3.17-11.287 11.945-8.118 19.599z"/></g></svg>