<svg id="Capa_1" enable-background="new 0 0 512 512" height="512" viewBox="0 0 512 512" width="512" xmlns="http://www.w3.org/2000/svg"><g><path d="m486.394 4.41-111.39 111.39v-100.784c0-8.284-6.716-15-15-15h-103.997c-8.284 0-15 6.716-15 15v234.779l-29.999 29.999v-143.782c0-4.771 1.137 1.269-45.94-126.224-4.83-12.987-23.281-13.005-28.117 0-47.123 127.586-45.94 121.45-45.94 126.224v263.778l-86.604 86.604c-9.418 9.418-2.746 25.606 10.606 25.606h481.987c8.284 0 15-6.716 15-15v-481.984c0-13.32-16.168-20.046-25.606-10.606zm-111.39 259.877 31.999-31.998v174.715h-31.999zm-133.997 27.933v189.781h-29.999v-159.782zm-119.997-141.208h59.998v269.991h-59.998zm29.999-92.965 23.417 62.966h-46.834zm-59.998 384.168v39.786h-39.786zm29.999 39.786v-30.999h59.998v30.999zm149.996 0v-451.985h73.998v60.998h-29.999c-8.284 0-15 6.716-15 15s6.716 15 15 15h29.999v30.999h-29.999c-8.284 0-15 6.716-15 15s6.716 14.999 15 14.999h29.999v28.999h-29.999c-8.284 0-15 6.716-15 15s6.716 14.999 15 14.999h29.999v30.999h-29.999c-8.284 0-15 6.716-15 15s6.716 15 15 15h29.999v30.999h-29.999c-8.284 0-15 6.716-15 15s6.716 14.999 15 14.999h29.999v30.999h-29.999c-8.284 0-15 6.716-15 15s6.716 14.999 15 14.999h29.999v57.998h-73.998zm210.995 0h-106.997v-44.999h46.999c8.284 0 15-6.716 15-14.999v-225.927c0-13.32-16.168-20.046-25.606-10.606l-36.393 36.392v-63.638l106.997-106.995z"/></g></svg>