<svg id="Capa_1" enable-background="new 0 0 512 512" height="512" viewBox="0 0 512 512" width="512" xmlns="http://www.w3.org/2000/svg"><g><path d="m477.607 204.541-42.426-42.426c-5.857-5.858-15.355-5.858-21.213 0l-23.968 23.967v-141.082c0-8.284-6.716-15-15-15h-45.5v-15c0-8.284-6.716-15-15-15s-15 6.716-15 15v15h-40v-15c0-8.284-6.716-15-15-15s-15 6.716-15 15v15h-40v-15c0-8.284-6.716-15-15-15s-15 6.716-15 15v15h-40v-15c0-8.284-6.716-15-15-15s-15 6.716-15 15v15h-44.5c-8.284 0-15 6.716-15 15v452c0 8.284 6.716 15 15 15h330c8.284 0 15-6.716 15-15v-183.64l87.606-87.606c5.858-5.858 5.858-15.356.001-21.213zm-188.415 167.201-31.82 10.606 10.606-31.82 114.169-114.168 21.213 21.213zm-199.692-311.742v15c0 8.284 6.716 15 15 15s15-6.716 15-15v-15h40v15c0 8.284 6.716 15 15 15s15-6.716 15-15v-15h40v15c0 8.284 6.716 15 15 15s15-6.716 15-15v-15h40v15c0 8.284 6.716 15 15 15s15-6.716 15-15v-15h30.5v61h-300v-61zm270.5 422h-300v-331h300c.001 12.067-.004 63.794.006 65.076l-115.745 115.744c-1.647 1.646-2.887 3.654-3.624 5.863l-17.772 53.317h-72.365c-16.818 0-30.5-13.682-30.5-30.5s13.682-30.5 30.5-30.5h31.5c33.084 0 60-26.916 60-60s-26.916-60-60-60h-46c-8.284 0-15 6.716-15 15s6.716 15 15 15h46c16.542 0 30 13.458 30 30s-13.458 30-30 30h-31.5c-33.36 0-60.5 27.14-60.5 60.5s27.14 60.5 60.5 60.5c89.164.072 85.259.557 89.372-1.195l62.166-20.723c2.209-.736 4.216-1.977 5.863-3.624l52.099-52.098zm64.573-245.64-21.213-21.213 21.213-21.213 21.213 21.213z"/></g></svg>