<svg id="Capa_1" enable-background="new 0 0 512 512" height="512" viewBox="0 0 512 512" width="512" xmlns="http://www.w3.org/2000/svg"><g><path d="m435.5 164.997h-68.86c11.612-29.725-10.421-61.999-42.39-61.999-31.91 0-54.022 32.223-42.39 61.999h-50.72c11.612-29.725-10.421-61.999-42.39-61.999-31.91 0-54.022 32.223-42.39 61.999h-69.86c-8.284 0-15 6.716-15 15v60.999c0 8.284 6.716 15 15 15h22.291l112.209 140.257v100.737c0 11.188 11.773 18.345 21.664 13.438l60.5-29.999c5.106-2.532 8.336-7.739 8.336-13.438v-70.112l112.709-140.884h21.291c8.284 0 15-6.716 15-15v-60.999c0-8.284-6.716-14.999-15-14.999zm-111.25-32c8.547 0 15.5 6.953 15.5 15.5s-6.953 15.5-15.5 15.5-15.5-6.953-15.5-15.5 6.953-15.5 15.5-15.5zm-135.5 0c8.547 0 15.5 6.953 15.5 15.5s-6.953 15.5-15.5 15.5-15.5-6.953-15.5-15.5 6.953-15.5 15.5-15.5zm-97.25 61.999h329v30.999h-329zm149.5 277.813v-66.818h30.5v51.694zm38.791-96.817h-46.581l-96-119.997h238.581z"/><path d="m121 90.998c25.089 0 45.5-20.411 45.5-45.499s-20.411-45.499-45.5-45.499-45.5 20.411-45.5 45.499 20.411 45.499 45.5 45.499zm0-60.999c8.547 0 15.5 6.953 15.5 15.5s-6.953 15.5-15.5 15.5-15.5-6.953-15.5-15.5 6.953-15.5 15.5-15.5z"/><path d="m392 90.998c25.089 0 45.5-20.411 45.5-45.499s-20.411-45.499-45.5-45.499-45.5 20.411-45.5 45.499 20.411 45.499 45.5 45.499zm0-60.999c8.547 0 15.5 6.953 15.5 15.5s-6.953 15.5-15.5 15.5-15.5-6.953-15.5-15.5 6.953-15.5 15.5-15.5z"/><path d="m256.5 90.998c25.089 0 45.5-20.411 45.5-45.499s-20.411-45.499-45.5-45.499-45.5 20.411-45.5 45.499 20.411 45.499 45.5 45.499zm0-60.999c8.547 0 15.5 6.953 15.5 15.5s-6.953 15.5-15.5 15.5-15.5-6.953-15.5-15.5 6.953-15.5 15.5-15.5z"/></g></svg>