<svg id="Capa_1" enable-background="new 0 0 512 512" height="512" viewBox="0 0 512 512" width="512" xmlns="http://www.w3.org/2000/svg"><g><path d="m459.146 191.982c19.431-57.843-31.19-118.318-93.918-104.652-11.177-49.671-55.797-87.33-109.478-87.33-53.418 0-98.096 37.063-109.19 87.386-62.476-13.867-113.827 46.452-94.169 104.703-24.201 5.78-42.391 26.825-42.391 53.482 0 30.338 24.682 55.02 55.02 55.02 144.364.009 90.411 0 116.48 0 .88 111.616-1.975 108.031 2.543 114.767l60.372 90c5.986 8.924 19.155 8.844 25.025-.168l58.628-90c4.323-6.636 1.591-2.993 2.432-114.598h116.48c30.338 0 55.02-24.682 55.02-55.02 0-26.833-18.454-47.983-42.854-53.59zm-158.646 200.019h-29.5v-91h29.5zm-59.5 0h-29.5v-91h29.5zm15.688 77.801-32.064-47.8h63.203zm190.292-199.211h-105.225c-39.822-.577-61.24-48.788-32.256-77.74 14.074-14.059 35.394-17.315 53.05-8.103 7.345 3.832 16.405.984 20.237-6.36 3.832-7.345.984-16.405-6.36-20.237-29.325-15.299-64.741-9.885-88.128 13.476-27.68 27.649-28.961 69.107-6.623 98.965h-51.85c22.394-29.931 21.031-71.342-6.623-98.965-23.387-23.361-58.803-28.776-88.128-13.476-7.345 3.832-10.192 12.893-6.36 20.237 3.832 7.345 12.892 10.193 20.237 6.36 17.656-9.213 38.975-5.956 53.05 8.103 28.976 28.945 7.579 77.163-32.256 77.74h-104.725c-13.796 0-25.02-11.224-25.02-25.02 0-16.609 15.098-27.082 29.303-24.676 24.267 27.72 68.535 36.286 103.593 16.238 7.192-4.112 9.688-13.276 5.576-20.467-4.113-7.192-13.277-9.688-20.467-5.576-42.211 24.138-92.445-16.014-77.023-61.209 10.078-29.536 43.843-42.84 71.184-28.847 9.711 4.969 21.369-1.787 21.822-12.732 1.816-43.908 37.73-78.302 81.762-78.302 44.076 0 80.145 34.338 82.115 78.174.488 10.857 12.029 17.61 21.733 12.723 27.07-13.635 60.846-.752 70.958 29.084 15.364 45.333-35.015 85.151-77.061 61.109-7.191-4.113-16.356-1.615-20.467 5.576-4.112 7.191-1.616 16.355 5.576 20.467 34.289 19.607 76.949 12.691 103.319-16.09 14.303-2.906 30.077 7.473 30.077 24.528 0 13.796-11.224 25.02-25.02 25.02z"/></g></svg>