<svg id="Capa_1" enable-background="new 0 0 512 512" height="512" viewBox="0 0 512 512" width="512" xmlns="http://www.w3.org/2000/svg"><g><path d="m318 282.534v-102.683c7.336-.98 13-7.247 13-14.851 0-8.284-6.716-15-15-15h-120c-8.284 0-15 6.716-15 15s6.716 15 15 15v103.459l-103.416 206.833c-4.978 9.954 2.268 21.708 13.416 21.708h300c11.06 0 18.346-11.611 13.479-21.58zm-93.584 11.174c1.042-2.083 1.584-4.379 1.584-6.708v-107h62v106c0 2.28.52 4.531 1.521 6.58l33.399 68.42h-132.15zm-94.145 188.292 45.5-91h161.794l44.422 91z"/><path d="m497 256h-15.973c-4.74-72.947-44.885-141.939-112.682-181h55.207c6.214 17.739 23.114 30.5 42.948 30.5 25.089 0 45.5-20.411 45.5-45.5s-20.411-45.5-45.5-45.5c-19.834 0-36.734 12.761-42.948 30.5h-106.552v-30c0-8.284-6.716-15-15-15h-92c-8.284 0-15 6.716-15 15v30h-106.552c-6.214-17.739-23.114-30.5-42.948-30.5-25.089 0-45.5 20.411-45.5 45.5s20.411 45.5 45.5 45.5c19.834 0 36.734-12.761 42.948-30.5h55.233c-63.492 36.58-107.862 103.002-112.73 181h-15.951c-8.284 0-15 6.716-15 15v62c0 8.284 6.716 15 15 15h62c8.284 0 15-6.716 15-15v-62c0-8.284-6.716-15-15-15h-15.961c5.788-79.177 58.625-146.718 133.961-171.302v22.302c0 8.284 6.716 15 15 15h92c8.284 0 15-6.716 15-15v-22.32c75.427 24.554 128.199 91.927 133.965 171.32h-15.965c-8.284 0-15 6.716-15 15v62c0 8.284 6.716 15 15 15h62c8.284 0 15-6.716 15-15v-62c0-8.284-6.716-15-15-15zm-435 62h-32v-32h32zm404.5-273.5c8.547 0 15.5 6.953 15.5 15.5s-6.953 15.5-15.5 15.5-15.5-6.953-15.5-15.5 6.953-15.5 15.5-15.5zm-421 31c-8.547 0-15.5-6.953-15.5-15.5s6.953-15.5 15.5-15.5 15.5 6.953 15.5 15.5-6.953 15.5-15.5 15.5zm241.5 16.5h-62v-62h62zm195 226h-32v-32h32z"/></g></svg>