<svg id="Capa_1" enable-background="new 0 0 512 512" height="512" viewBox="0 0 512 512" width="512" xmlns="http://www.w3.org/2000/svg"><g><path d="m106 361c-24.813 0-45 20.187-45 45s20.187 45 45 45 45-20.187 45-45-20.187-45-45-45zm0 60c-8.271 0-15-6.729-15-15s6.729-15 15-15 15 6.729 15 15-6.729 15-15 15z"/><path d="m437 302h-78.508l149.114-149.114c5.858-5.858 5.858-15.355 0-21.213l-84.853-84.854c-29.242-29.241-76.824-29.242-106.066 0-9.093 9.093-83.327 83.327-106.688 106.688v-138.507c0-8.284-6.716-15-15-15h-119.999c-41.355 0-75 33.645-75 75v362c0 41.355 33.645 75 75 75h422c8.284 0 15-6.716 15-15v-120c0-41.355-33.645-75-75-75zm-184.744 0-74.161-74.161 84.853-84.853 106.066 106.066-52.948 52.948zm-222.256-120h150v1.508l-118.492 118.492h-31.508zm126.882 67.052 52.948 52.948h-105.896zm181.018-181.019c17.546-17.546 46.095-17.546 63.641 0l74.246 74.247-85.56 85.56-106.067-106.067zm-262.9-38.033h105v122h-150v-77c0-24.813 20.187-45 45-45zm407 452h-407c-24.813 0-45-20.187-45-45v-105h407c24.813 0 45 20.187 45 45z"/></g></svg>