<svg id="Capa_1" enable-background="new 0 0 512 512" height="512" viewBox="0 0 512 512" width="512" xmlns="http://www.w3.org/2000/svg"><g><path d="m497 421h-46v-330h45c8.284 0 15-6.716 15-15s-6.716-15-15-15h-45v-46c0-8.284-6.716-15-15-15s-15 6.716-15 15v46h-330v-46c0-8.284-6.716-15-15-15s-15 6.716-15 15v46h-45c-8.284 0-15 6.716-15 15s6.716 15 15 15h45v330h-46c-8.284 0-15 6.716-15 15s6.716 15 15 15h46v46c0 8.284 6.716 15 15 15s15-6.716 15-15v-46h330v46c0 8.284 6.716 15 15 15s15-6.716 15-15v-46h46c8.284 0 15-6.716 15-15s-6.716-15-15-15zm-76-180.5h-60v-60h60zm-90 0h-60v-60h60zm-60-90v-59.5h60v59.5zm-30 0h-60v-59.5h60zm0 30v60h-60v-60zm-90 60h-60v-60h60zm-60 30h60v60h-60zm90 0h60v60h-60zm60 90v60.5h-60v-60.5zm30 0h60v60.5h-60zm0-30v-60h60v60zm90-60h60v60h-60zm60-120h-60v-59.5h60zm-270-59.5v59.5h-60v-59.5zm-60 269.5h60v60.5h-60zm270 60.5v-60.5h60v60.5z"/></g></svg>