<svg id="Capa_1" enable-background="new 0 0 512 512" height="512" viewBox="0 0 512 512" width="512" xmlns="http://www.w3.org/2000/svg"><g><path d="m497 166.5h-196v-136c0-8.284-6.716-15-15-15h-60c-8.284 0-15 6.716-15 15v136h-196c-8.284 0-15 6.716-15 15v300c0 8.284 6.716 15 15 15h482c8.284 0 15-6.716 15-15v-300c0-8.284-6.716-15-15-15zm-256-30h30v220.551l-14.788 30.459-15.212-30.539zm30-91v61h-30v-61zm-241 241h60v90h-60zm60-90v60h-60v-60zm-60 210h60v60h-60zm452 60h-362v-270h91v164c0 2.321.539 4.61 1.574 6.688 6.97 13.988 30.076 60.399 30.514 61.24 4.392 8.407 13.445 8.114 13.297 8.072h44.615c33.084 0 60-26.916 60-60v-91c0-16.542 13.458-30 30-30s30 13.458 30 30v16c0 8.284 6.716 15 15 15s15-6.716 15-15v-16c0-33.084-26.916-60-60-60s-60 26.916-60 60v91c0 16.542-13.458 30-30 30h-20.659l19.152-39.449c.991-2.042 1.506-4.282 1.506-6.551v-164h181v270z"/></g></svg>