<svg id="Capa_1" enable-background="new 0 0 512 512" height="512" viewBox="0 0 512 512" width="512" xmlns="http://www.w3.org/2000/svg"><g><path d="m346 121.31h-.075c-10.295 0-169.104 0-179.925 0-8.17 0-15 6.626-15 15 0 11.884.002 135.338.002 150.036.014 8.236 6.73 14.965 15.006 14.965 9.655 0 169.681-.002 180.016-.002 8.245-.013 14.976-6.719 14.976-14.999 0-11.884-.002-135.338-.002-150.036-.014-8.371-6.885-14.964-14.998-14.964zm-41.431 30-48.569 40.474-48.569-40.474zm-123.569 17.025 51.569 42.974-51.569 42.975zm26.431 102.975 48.569-40.475 48.569 40.474h-97.138zm123.569-17.026-51.569-42.974 51.569-42.975z"/><path d="m398.234 10.846c-4.49 2.718-7.234 7.585-7.234 12.834v37.38h-270v-37.38c0-5.249-2.744-10.116-7.234-12.833-49.563-29.991-113.766 5.724-113.766 64.213v210.5c0 41.355 33.645 75 75 75h362c41.355 0 75-33.645 75-75v-210.5c0-58.43-64.162-94.229-113.766-64.214zm-368.234 64.214c0-31.402 31.566-53.252 61-42.072v179.292c-20.737-4.515-43.061-.18-61 13.316zm407 255.5h-362c-24.813 0-45-20.187-45-45 0-35.218 38.663-56.442 68.234-38.546 9.969 6.033 22.766-1.147 22.766-12.833v-143.121h270v143.12c0 11.653 12.766 18.882 22.766 12.833 29.556-17.886 68.234 3.315 68.234 38.547 0 24.813-20.187 45-45 45zm45-104.965c-17.932-13.491-40.254-17.833-61-13.316v-179.292c29.48-11.197 61 10.711 61 42.072z"/><path d="m497 391h-482c-8.284 0-15 6.716-15 15v91c0 8.284 6.716 15 15 15h482c8.284 0 15-6.716 15-15v-91c0-8.284-6.716-15-15-15zm-15 91h-31v-16c0-8.284-6.716-15-15-15s-15 6.716-15 15v16h-30v-31c0-8.284-6.716-15-15-15s-15 6.716-15 15v31h-30v-16c0-8.284-6.716-15-15-15s-15 6.716-15 15v16h-30v-31c0-8.284-6.716-15-15-15s-15 6.716-15 15v31h-30v-16c0-8.284-6.716-15-15-15s-15 6.716-15 15v16h-30v-31c0-8.284-6.716-15-15-15s-15 6.716-15 15v31h-30v-16c0-8.284-6.716-15-15-15s-15 6.716-15 15v16h-31v-61h452z"/></g></svg>