<svg id="Capa_1" enable-background="new 0 0 512 512" height="512" viewBox="0 0 512 512" width="512" xmlns="http://www.w3.org/2000/svg"><g><path d="m256.009 92.895c-.357 0-.721.001-1.079.003-89.388.569-161.525 71.522-163.415 160.97-1.077 51.072 21.018 98.872 60.618 131.144 9.162 7.466 14.416 18.446 14.416 30.125v81.863c0 8.278 6.717 15 15 15h.094l148.902-.929c8.247-.051 14.906-6.752 14.906-15v-80.624c0-11.863 5.294-22.988 14.524-30.524 38.479-31.411 60.547-77.886 60.547-127.506 0-90.929-73.578-164.522-164.513-164.522zm-59.46 389.011v-43.975h118.902v43.232zm144.456-120.222c-14.277 11.654-23.194 28.209-25.143 46.248h-119.701c-1.887-17.989-10.784-34.527-25.076-46.175-32.388-26.394-50.458-65.487-49.576-107.256 1.547-73.329 60.237-131.136 133.612-131.604.295-.001.588-.002.883-.002 74.353 0 134.519 60.169 134.519 134.522-.001 40.573-18.049 78.577-49.518 104.267z"/><path d="m331.707 202.266-68.999-34.5c-4.223-2.111-9.193-2.111-13.416 0l-68.999 34.5c-5.064 2.532-8.292 7.749-8.292 13.417v80.499c0 5.682 3.21 10.875 8.292 13.417l68.999 34.5c4.039 2.016 8.968 2.153 13.235.089l68.999-33.35c5.181-2.504 8.473-7.751 8.473-13.505v-81.433c.126-5.634-3.121-11.049-8.292-13.634zm-75.707-4.313 36.12 18.06-35.085 18.434-36.711-18.656zm-53.999 42.178 40.016 20.335-.669 46.117-39.347-19.674zm69.349 66.47.669-46.137 37.98-19.956v47.412z"/><path d="m46 240.932h-31c-8.284 0-15 6.716-15 15s6.716 15 15 15h31c8.284 0 15-6.716 15-15s-6.716-15-15-15z"/><path d="m497 240.932h-31c-8.284 0-15 6.716-15 15s6.716 15 15 15h31c8.284 0 15-6.716 15-15s-6.716-15-15-15z"/><path d="m256 61c8.284 0 15-6.716 15-15v-31c0-8.284-6.716-15-15-15s-15 6.716-15 15v31c0 8.284 6.716 15 15 15z"/><path d="m96.901 118.046c5.857 5.857 15.355 5.858 21.213 0s5.858-15.355 0-21.213l-21.921-21.92c-5.857-5.857-15.355-5.858-21.213 0s-5.858 15.355 0 21.213z"/><path d="m415.099 393.817c-5.857-5.857-15.355-5.858-21.213 0s-5.858 15.355 0 21.213l21.921 21.92c5.857 5.857 15.355 5.858 21.213 0s5.858-15.355 0-21.213z"/><path d="m96.901 393.817-21.921 21.92c-5.858 5.858-5.858 15.355 0 21.213 5.857 5.858 15.354 5.858 21.213 0l21.921-21.92c5.858-5.858 5.858-15.355 0-21.213-5.856-5.857-15.354-5.858-21.213 0z"/><path d="m415.807 74.912-21.921 21.92c-5.858 5.858-5.858 15.355 0 21.213 5.857 5.858 15.354 5.858 21.213 0l21.921-21.92c5.858-5.858 5.858-15.355 0-21.213-5.858-5.857-15.356-5.858-21.213 0z"/></g></svg>