<svg id="Capa_1" enable-background="new 0 0 512 512" height="512" viewBox="0 0 512 512" width="512" xmlns="http://www.w3.org/2000/svg"><g><path d="m383.19 167.189c3.892-.428 7.163 2.466 7.163 6.311 0 8.284 6.716 15 15 15s15-6.716 15-15c0-21.795-18.901-38.502-40.446-36.131-8.234.907-14.175 8.317-13.269 16.551.908 8.235 8.311 14.173 16.552 13.269z"/><path d="m121.646 173.5c0-3.86 3.29-6.738 7.163-6.311 8.243.902 15.646-5.034 16.552-13.269.906-8.234-5.034-15.645-13.269-16.551-21.623-2.379-40.446 14.425-40.446 36.131 0 8.284 6.716 15 15 15s15-6.716 15-15z"/><path d="m398.45 287.686c-7.245-4.019-16.376-1.401-20.393 5.843-4.018 7.245-1.401 16.375 5.844 20.393 7.433 4.123 8.844 12.474 6.396 18.24-2.201 5.189-8.156 8.944-13.872 8.758-8.274-.277-15.223 6.194-15.509 14.474-.269 7.797 5.538 15.534 15.916 15.534 17.506 0 34.254-10.957 41.082-27.046 8.892-20.954.524-45.112-19.464-56.196z"/><path d="m135.574 340.919c-5.716.186-11.671-3.569-13.872-8.758-2.447-5.766-1.036-14.117 6.396-18.24 7.245-4.018 9.861-13.147 5.844-20.393-4.02-7.245-13.148-9.862-20.393-5.843-19.987 11.084-28.355 35.242-19.465 56.194 7.046 16.604 24.581 27.641 42.524 27.021 8.279-.286 14.759-7.229 14.474-15.509-.286-8.278-7.237-14.758-15.508-14.472z"/><path d="m482.5 326.5c0-30.402-13.119-58.942-35.298-78.73 21.592-18.378 34.298-45.434 34.298-74.27 0-50.386-38.555-92.894-89.454-97.155.535-40.552-32.201-76.345-75.546-76.345-24.73 0-46.72 11.932-60.5 30.332-13.78-18.4-35.77-30.332-60.5-30.332-43.327 0-76.082 35.778-75.546 76.345-51.006 4.273-89.454 46.885-89.454 97.155 0 28.81 12.688 55.876 34.298 74.27-22.179 19.788-35.298 48.328-35.298 78.73 0 54.894 40.795 97.199 90.681 104.479-2.987 41.975 29.614 81.021 75.319 81.021 24.73 0 46.72-11.932 60.5-30.332 13.78 18.4 35.77 30.332 60.5 30.332 45.669 0 78.308-39.016 75.319-81.021 49.861-7.279 90.681-49.555 90.681-104.479zm-241.5 110.125c0 25.02-20.411 45.375-45.5 45.375-32.099 0-52.85-31.801-43.115-60.101 3.414-9.925-4.159-20.208-14.702-19.87-40.894 1.421-78.183-31.112-78.183-75.529 0-27.421 14.923-52.73 38.944-66.052 10.557-5.855 10.203-21.188-.604-26.554-22.683-11.261-37.34-34.967-37.34-60.394 0-39.203 33.894-71.615 74.999-67.09 10.508 1.156 18.909-8.666 16.105-18.879-7.906-28.817 13.774-57.531 43.896-57.531 25.089 0 45.5 20.355 45.5 45.375v45.625h-16.5c-6.271 0-11.88 3.901-14.063 9.78l-49 132c-3.665 9.872 3.737 20.388 14.313 20.218l38.595-.644-34.026 98.759c-5.306 15.397 14.261 26.792 25.149 15.119l35.532-38.085zm-9.333-112.451 18.015-52.288c3.397-9.859-4.068-20.065-14.432-19.884l-38.047.634 37.729-101.636h55.816l-19.269 50.668c-3.724 9.794 3.511 20.332 14.021 20.332h41.491zm142.65 77.855c-10.576-.338-18.104 9.979-14.702 19.87 9.73 28.286-11.001 60.101-43.115 60.101-25.089 0-45.5-20.355-45.5-45.375v-110.634l101.468-108.759c8.925-9.566 2.125-25.232-10.968-25.232h-54.248l19.269-50.668c3.724-9.794-3.511-20.332-14.021-20.332h-41.5v-45.625c0-25.02 20.411-45.375 45.5-45.375 30.028 0 51.825 28.629 43.896 57.531-2.799 10.197 5.579 20.037 16.105 18.879 41.038-4.521 74.999 27.836 74.999 67.09 0 25.427-14.657 49.133-37.34 60.395-10.813 5.368-11.157 20.701-.604 26.554 24.021 13.321 38.944 38.63 38.944 66.051 0 44.111-36.969 76.953-78.183 75.529z"/></g></svg>