<svg id="Capa_1" enable-background="new 0 0 512 512" height="512" viewBox="0 0 512 512" width="512" xmlns="http://www.w3.org/2000/svg"><g><path d="m497 0h-482c-8.284 0-15 6.716-15 15v331c0 8.284 6.716 15 15 15h166v61h-24.701c-.128 0-.256.001-.384.005-19.03.313-34.415 15.891-34.415 34.995v40c0 8.284 6.716 15 15 15h239c8.284 0 15-6.716 15-15v-40c0-19.299-15.701-35-35-35h-24.5v-61h166c8.284 0 15-6.716 15-15v-331c0-8.284-6.716-15-15-15zm-136.5 457v25h-209v-25c0-2.757 2.243-5 5-5h199c2.757 0 5 2.243 5 5zm-59.5-35h-90v-61h30v15c0 8.284 6.716 15 15 15s15-6.716 15-15v-15h30zm181-91h-452v-301h452z"/><path d="m150.75 234.5h62.16c7.665 37.611 40.998 66 80.84 66 45.491 0 82.5-37.009 82.5-82.5 0-40.017-28.643-73.458-66.5-80.929v-61.571c0-8.284-6.716-15-15-15h-144c-8.284 0-15 6.716-15 15v144c0 8.284 6.716 15 15 15zm195.5-16.5c0 28.949-23.551 52.5-52.5 52.5-23.185 0-42.894-15.113-49.829-36h50.829c8.284 0 15-6.716 15-15v-51.498c21.147 6.783 36.5 26.628 36.5 49.998zm-103.232-13.5c4.781-17.949 18.854-32.136 36.732-37.09v37.09zm-77.268-114h114v46.212c-34.456 5.918-61.668 33.262-67.377 67.788h-46.623z"/></g></svg>