<svg id="Capa_1" enable-background="new 0 0 512 512" height="512" viewBox="0 0 512 512" width="512" xmlns="http://www.w3.org/2000/svg"><g><path d="m76 360h151c11.797 0 18.983-13.037 12.681-23.012l-151-239c-8.008-12.675-27.681-6.966-27.681 8.012v239c0 8.284 6.716 15 15 15zm15-202.175 108.78 172.175h-108.78z"/><path d="m146 120h34v66c0 8.284 6.716 15 15 15s15-6.716 15-15v-66h90v62h-45c-8.284 0-15 6.716-15 15v59c0 8.284 6.716 15 15 15h45v60h-14c-8.284 0-15 6.716-15 15s6.716 15 15 15h29c8.284 0 15-6.716 15-15v-90c0-8.284-6.716-15-15-15h-45v-29h45c8.284 0 15-6.716 15-15v-92c0-8.284-6.716-15-15-15h-169c-8.284 0-15 6.716-15 15s6.716 15 15 15z"/><path d="m510.426 69.312-30.384-61c-5.528-11.097-21.479-11.07-26.92.137l-29.615 61c-.992 2.042-1.507 4.281-1.507 6.551v285c0 8.284 6.716 15 15 15h60c8.284 0 15-6.716 15-15v-285c0-2.321-.539-4.61-1.574-6.688zm-43.638-20.323 15.212 30.54v190.471h-30v-190.551zm-14.788 297.011v-46h30v46z"/><path d="m391 391.013v-376.013c0-8.284-6.716-15-15-15h-361c-8.284 0-15 6.716-15 15 .019 321.536-.043 438.326.076 439.514 1.577 31.965 28.075 57.486 60.424 57.486h330c33.36 0 60.5-27.14 60.5-60.5 0-33.192-26.871-60.216-60-60.487zm-361 60.487v-421.5h331v361h-300.5c-8.284 0-15 6.716-15 15s6.716 15 15 15c16.818 0 30.5 13.682 30.5 30.5s-13.682 30.5-30.5 30.5-30.5-13.682-30.5-30.5zm360.5 30.5h-277.783c11.041-18.829 11.059-42.14 0-61h277.783c16.818 0 30.5 13.682 30.5 30.5s-13.682 30.5-30.5 30.5z"/></g></svg>