<svg id="Capa_1" enable-background="new 0 0 512 512" height="512" viewBox="0 0 512 512" width="512" xmlns="http://www.w3.org/2000/svg"><g><path d="m196 61h-120c-8.284 0-15 6.716-15 15v90c0 8.284 6.716 15 15 15h120c8.284 0 15-6.716 15-15v-90c0-8.284-6.716-15-15-15zm-15 90h-90v-60h90z"/><path d="m376 61h-120c-8.284 0-15 6.716-15 15v90c0 8.284 6.716 15 15 15h120c8.284 0 15-6.716 15-15v-90c0-8.284-6.716-15-15-15zm-15 90h-90v-60h90z"/><path d="m196 271h-120c-8.284 0-15 6.716-15 15v90c0 8.284 6.716 15 15 15h120c8.284 0 15-6.716 15-15v-90c0-8.284-6.716-15-15-15zm-15 90h-90v-60h90z"/><path d="m376 271h-120c-8.284 0-15 6.716-15 15v90c0 8.284 6.716 15 15 15h120c8.284 0 15-6.716 15-15v-90c0-8.284-6.716-15-15-15zm-15 90h-90v-60h90z"/><path d="m196 211h-120c-8.284 0-15 6.716-15 15s6.716 15 15 15h120c8.284 0 15-6.716 15-15s-6.716-15-15-15z"/><path d="m196 421h-120c-8.284 0-15 6.716-15 15s6.716 15 15 15h120c8.284 0 15-6.716 15-15s-6.716-15-15-15z"/><path d="m376 211h-120c-8.284 0-15 6.716-15 15s6.716 15 15 15h120c8.284 0 15-6.716 15-15s-6.716-15-15-15z"/><path d="m376 420h-120c-8.284 0-15 6.716-15 15s6.716 15 15 15h120c8.284 0 15-6.716 15-15s-6.716-15-15-15z"/><path d="m497 360h-45v-345c0-8.284-6.716-15-15-15h-422c-8.284 0-15 6.716-15 15v452c0 24.813 20.187 45 45 45h422c24.813 0 45-20.187 45-45v-92c0-8.284-6.716-15-15-15zm-467 107v-437h392v437c0 5.258.915 10.305 2.58 15h-379.58c-8.271 0-15-6.729-15-15zm452 0c0 8.271-6.729 15-15 15s-15-6.729-15-15c0-17.429 0-60.63 0-77h30z"/></g></svg>