<svg id="Capa_1" enable-background="new 0 0 512 512" height="512" viewBox="0 0 512 512" width="512" xmlns="http://www.w3.org/2000/svg"><g><path d="m497 0h-482c-8.284 0-15 6.716-15 15v60c0 8.284 6.716 15 15 15h16v286c0 8.284 6.716 15 15 15h195v32.552c-17.739 6.214-30.5 23.114-30.5 42.948 0 25.089 20.411 45.5 45.5 45.5s45.5-20.411 45.5-45.5c0-19.834-12.761-36.734-30.5-42.948v-32.552h195c8.284 0 15-6.716 15-15v-286h16c8.284 0 15-6.716 15-15v-60c0-8.284-6.716-15-15-15zm-241 482c-8.547 0-15.5-6.953-15.5-15.5s6.953-15.5 15.5-15.5 15.5 6.953 15.5 15.5-6.953 15.5-15.5 15.5zm195-121h-390v-271h390zm31-301h-452v-30h452z"/><path d="m91 287c0 8.284 6.716 15 15 15h149c8.284 0 15-6.716 15-15v-106h99.787l-4.394 4.394c-5.858 5.858-5.858 15.355 0 21.213 5.857 5.858 15.355 5.859 21.213 0l30-30c5.858-5.858 5.858-15.355 0-21.213l-30-30c-5.857-5.858-15.355-5.858-21.213 0s-5.858 15.355 0 21.213l4.394 4.394h-114.787c-8.284 0-15 6.716-15 15v106h-134c-8.284-.001-15 6.715-15 14.999z"/><path d="m416.472 260.1c-5.857-5.858-15.355-5.858-21.213 0l-12.009 12.009-12.009-12.009c-5.857-5.858-15.355-5.858-21.213 0s-5.858 15.355 0 21.213l12.009 12.009-12.009 12.009c-5.858 5.858-5.858 15.355 0 21.213 5.857 5.858 15.355 5.859 21.213 0l12.009-12.009 12.009 12.009c5.857 5.858 15.355 5.859 21.213 0 5.858-5.858 5.858-15.355 0-21.213l-12.009-12.009 12.009-12.009c5.858-5.858 5.858-15.355 0-21.213z"/><path d="m96.028 191.543c5.857 5.858 15.355 5.859 21.213 0l12.009-12.009 12.009 12.009c5.857 5.858 15.355 5.859 21.213 0 5.858-5.858 5.858-15.355 0-21.213l-12.009-12.009 12.009-12.009c5.858-5.858 5.858-15.355 0-21.213-5.857-5.858-15.355-5.858-21.213 0l-12.009 12.009-12.009-12.008c-5.857-5.858-15.355-5.858-21.213 0s-5.858 15.355 0 21.213l12.009 12.009-12.009 12.008c-5.858 5.858-5.858 15.355 0 21.213z"/></g></svg>