<svg id="Capa_1" enable-background="new 0 0 512 512" height="512" viewBox="0 0 512 512" width="512" xmlns="http://www.w3.org/2000/svg"><g><path d="m497 0h-482c-8.284 0-15 6.716-15 15v482c0 8.284 6.716 15 15 15h482c8.284 0 15-6.716 15-15v-482c0-8.284-6.716-15-15-15zm-15 30v91h-452v-91zm-452 452v-331h452v331z"/><path d="m362.5 211h-211c-32.809 0-59.5 26.691-59.5 59.5s26.691 59.5 59.5 59.5h132.645v82.738c0 10.581 10.633 17.753 20.385 14l28-10.769 9.453 24.579c2.97 7.723 11.644 11.593 19.385 8.615 7.732-2.974 11.589-11.652 8.615-19.385l-9.453-24.578 28.001-10.77c9.788-3.765 12.82-16.219 5.749-24.052l-36.453-40.378h4.673c32.809 0 59.5-26.691 59.5-59.5s-26.691-59.5-59.5-59.5zm-5.124 163.27-43.231 16.628v-60.898h3.266zm5.124-74.27h-31.757l-20.465-22.669c-9.184-10.175-26.134-3.648-26.134 10.052v12.617h-132.644c-16.267 0-29.5-13.233-29.5-29.5s13.233-29.5 29.5-29.5h211c16.267 0 29.5 13.233 29.5 29.5s-13.233 29.5-29.5 29.5z"/><circle cx="436" cy="76" r="15"/><circle cx="376" cy="76" r="15"/><circle cx="316" cy="76" r="15"/></g></svg>