<svg id="Capa_1" enable-background="new 0 0 512 512" height="512" viewBox="0 0 512 512" width="512" xmlns="http://www.w3.org/2000/svg"><g><path d="m150.795 62.475v-32.475h210.119v105h-29.016c-11.545 0-18.775 12.526-12.989 22.516l44.025 76c5.743 9.912 20.066 9.979 25.903.127l45.026-76c5.914-9.984-1.299-22.642-12.915-22.642h-30.017v-120.001c0-8.284-6.72-15-15.009-15h-240.136c-8.289 0-15.009 6.716-15.009 15v47.353c-66.359 7.182-120.787 64.844-120.777 134.271.005 40.657 18.083 78.756 49.596 104.527 6.981 5.709 11.148 13.956 11.148 22.061v112.786c0 8.13 6.476 14.733 14.552 14.977.113 33.116 27.099 60.023 60.26 60.023 33.152 0 60.133-26.895 60.259-60h.006c8.289 0 15.009-6.716 15.009-15-.005-107.768.074-81.181-.237-112.828.017-8.758 3.416-16.708 9.102-21.276 32.101-25.791 50.512-64.167 50.512-105.288-.002-70.224-53.126-126.523-119.412-134.131zm225.273 133.838-18.139-31.313h36.691zm-195.256 165.686v59h-90.051v-59zm-45.256 118.999c-16.602 0-30.118-13.437-30.243-30h60.485c-.126 16.563-13.641 30-30.242 30zm65.33-202.484c-24.418 19.619-19.855 51.354-20.224 53.485h-25.003l39.529-131.689c2.885-9.614-4.326-19.31-14.375-19.31h-90.052c-10.043 0-17.263 9.69-14.375 19.31l39.529 131.689h-25.154c-.687-3.622 4.718-32.086-22.155-54.064-24.519-20.052-38.584-49.69-38.588-81.314-.009-56.539 47.766-104.639 104.325-105.037.255-.001.508-.002.763-.002 58.054 0 105.082 46.947 105.082 105.025 0 31.985-14.325 61.839-39.302 81.907zm-65.1 15.283-24.854-82.798h49.708z"/><path d="m496.991 333.076h-25.144c-2.374-4.997-5.174-9.884-8.469-14.66l12.572-21.763c4.145-7.174 1.686-16.348-5.493-20.49l-51.99-30c-7.179-4.144-16.357-1.685-20.502 5.49l-12.57 21.758c-5.649-.464-11.309-.467-16.95-.011l-12.563-21.746c-4.142-7.169-13.325-9.633-20.502-5.49l-51.99 30c-7.179 4.142-9.638 13.316-5.493 20.49l12.562 21.747c-3.216 4.654-6.043 9.555-8.466 14.677h-25.137c-8.289 0-15.009 6.716-15.009 15v60c0 8.284 6.72 15 15.009 15h25.144c2.431 5.114 5.251 9.997 8.469 14.66l-12.572 21.763c-4.145 7.174-1.686 16.348 5.493 20.49l51.99 30c7.146 4.124 16.339 1.716 20.502-5.49l12.57-21.758c5.649.464 11.309.468 16.95.011l12.563 21.746c4.145 7.175 13.324 9.631 20.502 5.49l51.99-30c7.175-4.14 9.637-13.317 5.493-20.49l-12.563-21.746c3.216-4.654 6.043-9.556 8.467-14.677h25.137c8.289 0 15.009-6.716 15.009-15v-60c0-8.285-6.72-15.001-15.009-15.001zm-15.008 60h-20.162c-6.363 0-12.034 4.01-14.153 10.007-3.088 8.743-7.697 16.732-13.697 23.746-4.134 4.832-4.771 11.743-1.591 17.248l10.07 17.432-25.995 15-10.07-17.432c-3.181-5.505-9.489-8.41-15.74-7.248-9.076 1.686-18.305 1.68-27.425-.018-6.257-1.167-12.566 1.738-15.747 7.246l-10.082 17.452-25.995-15 10.073-17.438c3.178-5.5 2.544-12.403-1.579-17.235-5.98-7.004-10.65-15.087-13.734-23.774-2.124-5.986-7.791-9.985-14.145-9.985h-20.147v-30h20.162c6.363 0 12.034-4.01 14.153-10.007 3.088-8.743 7.697-16.732 13.697-23.747 4.133-4.832 4.77-11.742 1.59-17.247l-10.069-17.432 25.995-15 10.07 17.432c3.18 5.505 9.487 8.411 15.741 7.247 9.075-1.687 18.301-1.681 27.424.018 6.256 1.163 12.566-1.739 15.747-7.246l10.082-17.452 25.995 15-10.073 17.438c-3.178 5.5-2.544 12.403 1.579 17.235 5.979 7.006 10.65 15.085 13.734 23.774 2.124 5.986 7.79 9.986 14.145 9.986h20.147z"/><path d="m354.41 339.105c-21.501 12.406-28.893 39.982-16.48 61.471 12.354 21.387 39.912 28.931 61.506 16.471 21.5-12.406 28.893-39.982 16.48-61.47-12.442-21.54-39.949-28.909-61.506-16.472zm30.017 51.961c-7.168 4.134-16.364 1.672-20.502-5.49-4.138-7.163-1.674-16.355 5.493-20.491 7.198-4.153 16.359-1.68 20.502 5.491 4.139 7.163 1.675 16.354-5.493 20.49z"/></g></svg>