<svg id="Capa_1" enable-background="new 0 0 512 512" height="512" viewBox="0 0 512 512" width="512" xmlns="http://www.w3.org/2000/svg"><g><path d="m420 106c8.284 0 15-6.716 15-15v-30.5c0-33.36-27.141-60.5-60.5-60.5-14.555 0-284.753 0-299 0-32.009 0-60.5 25.575-60.5 61v436c0 8.284 6.716 15 15 15h332c8.284 0 15-6.716 15-15v-391zm-45.5-76c16.817 0 30.5 13.682 30.5 30.5v15.5h-269c-.828-10.174 3.139-26.543-8.265-46zm-27.5 452h-302c0-.123 0-63.937 0-421.5 0-16.818 13.683-30.5 30.5-30.5s30.5 13.682 30.5 30.5v30.5c0 8.284 6.716 15 15 15h226z"/><path d="m91 166v120c0 8.284 6.716 15 15 15h45v45c0 8.284 6.716 15 15 15h120c8.284 0 15-6.716 15-15v-120c0-8.284-6.716-15-15-15h-45v-45c0-8.284-6.716-15-15-15h-120c-8.284 0-15 6.716-15 15zm180 75v90h-90v-30h15c24.813 0 45-20.187 45-45v-15zm-90 30v-15c0-8.271 6.729-15 15-15h15v15c0 8.271-6.729 15-15 15zm-60-90h90v30h-15c-24.813 0-45 20.187-45 45v15h-30z"/><path d="m465.042 130.312c-5.557-11.154-21.491-11.046-26.921.137-30.454 63.882-31.121 61.488-31.121 67.551v299c0 8.284 6.716 15 15 15h60c8.284 0 15-6.716 15-15v-299c0-6.203-.753-3.86-31.958-67.688zm-13.254 40.677 15.212 30.54v204.471h-30v-204.551zm-14.788 311.011v-46h30v46z"/><path d="m286 391h-180c-8.284 0-15 6.716-15 15s6.716 15 15 15h180c8.284 0 15-6.716 15-15s-6.716-15-15-15z"/></g></svg>