<svg id="Capa_1" enable-background="new 0 0 512 512" height="512" viewBox="0 0 512 512" width="512" xmlns="http://www.w3.org/2000/svg"><g><path d="m497 0h-482c-8.284 0-15 6.716-15 15v331c0 8.284 6.716 15 15 15h166v61c-16.654.001-24.754-.003-25.085.005-19.03.313-34.415 15.891-34.415 34.995v40c0 8.284 6.716 15 15 15h239c8.284 0 15-6.716 15-15v-40c0-19.299-15.701-35-35-35h-24.5v-61h166c8.284 0 15-6.716 15-15v-331c0-8.284-6.716-15-15-15zm-136.5 457v25h-209v-25c0-2.757 2.243-5 5-5h199c2.757 0 5 2.243 5 5zm-59.5-35h-90v-61h30v15c0 8.284 6.716 15 15 15s15-6.716 15-15v-15h30zm181-91h-452v-301h452z"/><path d="m256 301c66.168 0 120-53.832 120-120s-53.832-120-120-120-120 53.832-120 120 53.832 120 120 120zm0-30c-19.41 0-37.403-6.177-52.12-16.667l58.333-58.333h82.53c-7.163 42.511-44.227 75-88.743 75zm88.743-105h-73.743v-73.743c37.631 6.34 67.403 36.112 73.743 73.743zm-103.743-73.743v82.53l-58.333 58.333c-10.49-14.717-16.667-32.71-16.667-52.12 0-44.516 32.489-81.58 75-88.743z"/></g></svg>