<svg id="Capa_1" enable-background="new 0 0 512 512" height="512" viewBox="0 0 512 512" width="512" xmlns="http://www.w3.org/2000/svg"><g><path d="m497 0h-482c-8.284 0-15 6.716-15 15v482c0 8.284 6.716 15 15 15h482c8.284 0 15-6.716 15-15v-482c0-8.284-6.716-15-15-15zm-15 30v91h-452v-91zm-452 452v-331h452v331z"/><circle cx="436" cy="76" r="15"/><circle cx="376" cy="76" r="15"/><circle cx="316" cy="76" r="15"/><path d="m166 181h-90c-8.284 0-15 6.716-15 15v90c0 8.284 6.716 15 15 15h90c8.284 0 15-6.716 15-15v-90c0-8.284-6.716-15-15-15zm-15 68.787-38.787-38.787h38.787zm-60-17.574 38.787 38.787h-38.787z"/><path d="m166 331h-90c-8.284 0-15 6.716-15 15v90c0 8.284 6.716 15 15 15h90c8.284 0 15-6.716 15-15v-90c0-8.284-6.716-15-15-15zm-15 68.787-38.787-38.787h38.787zm-60-17.574 38.787 38.787h-38.787z"/><path d="m436 181h-210c-8.284 0-15 6.716-15 15v240c0 8.284 6.716 15 15 15h210c8.284 0 15-6.716 15-15v-240c0-8.284-6.716-15-15-15zm-15 215.883-161.35-185.883h161.35zm-180-161.602 161.208 185.719h-161.208z"/></g></svg>