<svg id="Capa_1" enable-background="new 0 0 512 512" height="512" viewBox="0 0 512 512" width="512" xmlns="http://www.w3.org/2000/svg"><g><path d="m105 241h240c8.284 0 15-6.716 15-15s-6.716-15-15-15h-240c-8.284 0-15 6.716-15 15s6.716 15 15 15z"/><path d="m105 301h120c8.284 0 15-6.716 15-15s-6.716-15-15-15h-120c-8.284 0-15 6.716-15 15s6.716 15 15 15z"/><path d="m105 361h150c8.284 0 15-6.716 15-15s-6.716-15-15-15h-150c-8.284 0-15 6.716-15 15s6.716 15 15 15z"/><path d="m345 271h-60c-8.284 0-15 6.716-15 15s6.716 15 15 15h60c8.284 0 15-6.716 15-15s-6.716-15-15-15z"/><path d="m497 89.872h-47v-12.872c0-8.284-6.716-15-15-15h-75v-2c0-33.084-26.916-60-60-60s-60 26.916-60 60v2h-225c-8.284 0-15 6.716-15 15v360c0 8.284 6.716 15 15 15h47v45c0 8.284 6.716 15 15 15h420c8.284 0 15-6.716 15-15v-392.128c0-8.284-6.716-15-15-15zm-227-29.872c0-16.542 13.458-30 30-30s30 13.458 30 30v2c-14.506 0-45.006 0-60 0zm0 32h30v44c0 8.271-6.729 15-15 15s-15-6.729-15-15zm-240 0h210v44c0 24.813 20.187 45 45 45s45-20.187 45-45v-44h90v239h-105c-8.284 0-15 6.716-15 15v76h-270zm360.396 269-60.396 45.8v-45.8zm91.604 121h-390v-30c16.629 0 223.124-.001 223.008 0 9.016-.005 2.755.395 129.056-94.047 3.972-3.012 6.102-7.728 5.916-12.536.004-.14.021-.276.021-.416v-225.129h32v362.128z"/></g></svg>