<svg id="Capa_1" enable-background="new 0 0 512 512" height="512" viewBox="0 0 512 512" width="512" xmlns="http://www.w3.org/2000/svg"><g><path d="m497 0h-482c-8.284 0-15 6.716-15 15v482c0 8.284 6.716 15 15 15h482c8.284 0 15-6.716 15-15v-482c0-8.284-6.716-15-15-15zm-386.322 302 84.787-84.787 84.787 84.787zm212 0-45.5-45.5 38.972-38.973 84.472 84.473zm120.369 0-116.291-116.292c-5.853-5.854-15.356-5.858-21.213 0l-49.578 49.579-49.894-49.894c-5.854-5.855-15.357-5.857-21.213 0l-116.606 116.607h-38.252v-151h452v151zm38.953-272v91h-452v-91zm-452 302h151v150h-151zm181 150v-150h271v150z"/><circle cx="436" cy="76" r="15"/><circle cx="376" cy="76" r="15"/><circle cx="316" cy="76" r="15"/><path d="m436 361h-180c-8.284 0-15 6.716-15 15s6.716 15 15 15h180c8.284 0 15-6.716 15-15s-6.716-15-15-15z"/><path d="m436 421h-180c-8.284 0-15 6.716-15 15s6.716 15 15 15h180c8.284 0 15-6.716 15-15s-6.716-15-15-15z"/><path d="m136 361h-60c-8.284 0-15 6.716-15 15v60c0 8.284 6.716 15 15 15h60c8.284 0 15-6.716 15-15v-60c0-8.284-6.716-15-15-15zm-15 60h-30v-30h30z"/></g></svg>