<svg id="Capa_1" enable-background="new 0 0 512 512" height="512" viewBox="0 0 512 512" width="512" xmlns="http://www.w3.org/2000/svg"><g><path d="m416.221 105.952c-13.087-26.277-40.729-43.666-71.236-42.759-29.552-70.865-123.747-85.445-173.314-26.779-50.384-9.048-97.4 28.202-100.18 79.189-43.181 19.133-71.491 62.052-71.491 110.02 0 55.959 38.549 103.964 91.699 116.907 1.857 36.245 31.919 65.161 68.605 65.161 23.795 0 45.138-11.963 57.554-31.095 48.35 26.131 109.707 12.74 142.844-32.585 50.84 11.073 99.18-25.708 103.083-76.715 29.23-14.048 48.215-43.682 48.215-76.783 0-51.236-45.055-90.917-95.779-84.561zm27.992 136.961c-6.396 2.125-10.588 8.256-10.25 14.987 1.975 39.701-37.368 68.455-74.47 54.557-6.867-2.573-14.584.195-18.25 6.545-24.52 42.453-81.172 54.2-120.409 23.84-8.289-6.417-20.458-2.548-23.523 7.477-5.006 16.37-19.877 27.369-37.006 27.369-23.689 0-42.095-21.285-38.165-45.085 1.388-8.41-4.51-16.294-12.973-17.333-45.133-5.539-79.167-44.079-79.167-89.647 0-38.806 24.674-73.209 61.397-85.608 6.506-2.196 10.69-8.531 10.157-15.377-3.043-39.102 34.416-68.73 71.59-57.026 6.303 1.986 13.166-.39 16.892-5.851 35.153-51.494 113.979-37.533 130.24 21.639 2.095 7.619 9.74 12.309 17.475 10.72 24.205-4.959 48.039 9.759 54.699 33.168 2.285 8.029 10.685 12.642 18.682 10.279 35.453-10.486 70.868 16.228 70.868 52.946 0 23.831-15.186 44.889-37.787 52.4z"/><path d="m106.5 420.993c-25.089 0-45.5 20.413-45.5 45.503s20.411 45.504 45.5 45.504 45.5-20.413 45.5-45.503-20.411-45.504-45.5-45.504zm0 61.005c-8.547 0-15.5-6.954-15.5-15.501s6.953-15.501 15.5-15.501 15.5 6.954 15.5 15.501-6.953 15.501-15.5 15.501z"/><path d="m131 180.975c-24.813 0-45 20.188-45 45.003s20.187 45.003 45 45.003 45-20.188 45-45.003-20.187-45.003-45-45.003zm0 60.004c-8.271 0-15-6.729-15-15.001s6.729-15.001 15-15.001 15 6.729 15 15.001-6.729 15.001-15 15.001z"/><path d="m371 180.975c-24.813 0-45 20.188-45 45.003s20.187 45.003 45 45.003 45-20.188 45-45.003-20.187-45.003-45-45.003zm0 60.004c-8.271 0-15-6.729-15-15.001s6.729-15.001 15-15.001 15 6.729 15 15.001-6.729 15.001-15 15.001z"/><path d="m251 180.975c-24.813 0-45 20.188-45 45.003s20.187 45.003 45 45.003 45-20.188 45-45.003-20.187-45.003-45-45.003zm0 60.004c-8.271 0-15-6.729-15-15.001s6.729-15.001 15-15.001 15 6.729 15 15.001-6.729 15.001-15 15.001z"/></g></svg>