<svg id="Capa_1" enable-background="new 0 0 512 512" height="512" viewBox="0 0 512 512" width="512" xmlns="http://www.w3.org/2000/svg"><g><path d="m421.5 422h-15v-45c0-8.284-6.716-15-15-15h-25v-34.36h45c8.284 0 15-6.716 15-15v-108c0-131.248-105.433-204.64-235.86-204.64-8.332 0-15.072 6.8-14.999 15.13.153 17.767.286 42.556.2 53.35l-95.78 92.819c-5.196 5.035-6.058 13.063-2.047 19.086l41 61.569c4.263 6.398 12.671 8.542 19.476 4.957l72.925-38.406c-13.362 41.974-57.626 70.31-61.047 153.495h-18.868c-8.284 0-15 6.716-15 15v45h-15c-8.284 0-15 6.716-15 15v60c0 8.284 6.716 15 15 15h320c8.284 0 15-6.716 15-15v-60c0-8.284-6.716-15-15-15zm-25-217.36v93h-30v-93c0-91.63-69.638-138.888-160.632-144.191.006-9.176-.055-20.885-.113-30.031 107.635 5.814 190.745 65.125 190.745 174.222zm-151-23.14c0-11.279-12.014-18.524-21.99-13.271l-87.025 45.833-26.577-39.91 86.741-84.062c19.52.555 57.137 4.171 88.658 22.243 33.97 19.476 51.193 50.532 51.193 92.307v157.36h-156.097c4.267-89.145 65.097-105.805 65.097-180.5zm-99 210.5h230v30h-230zm260 90h-290v-30h290z"/></g></svg>