<svg id="Capa_1" enable-background="new 0 0 512 512" height="512" viewBox="0 0 512 512" width="512" xmlns="http://www.w3.org/2000/svg"><g><path d="m497 30h-482c-8.284 0-15 6.716-15 15v422c0 8.284 6.716 15 15 15h482c8.284 0 15-6.716 15-15v-422c0-8.284-6.716-15-15-15zm-467 30h211v392h-211zm452 392h-211v-392h211z"/><path d="m132.106 159.106 42.5-42.5c5.858-5.857 5.858-15.355 0-21.213-5.857-5.857-15.355-5.857-21.213 0l-31.893 31.894-5.894-5.894c-5.857-5.857-15.355-5.857-21.213 0s-5.858 15.355 0 21.213l16.5 16.5c5.859 5.859 15.356 5.858 21.213 0z"/><path d="m343.644 160.106c5.858 5.859 15.355 5.858 21.213 0l11.143-11.143 11.144 11.144c5.858 5.859 15.355 5.858 21.213 0 5.858-5.857 5.858-15.355 0-21.213l-11.144-11.144 11.144-11.144c5.858-5.857 5.858-15.355 0-21.213-5.857-5.857-15.355-5.857-21.213 0l-11.144 11.144-11.144-11.144c-5.857-5.857-15.355-5.857-21.213 0s-5.858 15.355 0 21.213l11.144 11.144-11.144 11.144c-5.858 5.857-5.858 15.355.001 21.212z"/><path d="m121 226c0 8.284 6.716 15 15 15h60c8.284 0 15-6.716 15-15s-6.716-15-15-15h-60c-8.284 0-15 6.716-15 15z"/><path d="m196 271h-60c-8.284 0-15 6.716-15 15s6.716 15 15 15h60c8.284 0 15-6.716 15-15s-6.716-15-15-15z"/><path d="m196 331h-60c-8.284 0-15 6.716-15 15s6.716 15 15 15h60c8.284 0 15-6.716 15-15s-6.716-15-15-15z"/><path d="m196 391h-60c-8.284 0-15 6.716-15 15s6.716 15 15 15h60c8.284 0 15-6.716 15-15s-6.716-15-15-15z"/><circle cx="76" cy="226" r="15"/><circle cx="76" cy="286" r="15"/><circle cx="76" cy="346" r="15"/><circle cx="76" cy="406" r="15"/><path d="m361 226c0 8.284 6.716 15 15 15h60c8.284 0 15-6.716 15-15s-6.716-15-15-15h-60c-8.284 0-15 6.716-15 15z"/><path d="m436 271h-60c-8.284 0-15 6.716-15 15s6.716 15 15 15h60c8.284 0 15-6.716 15-15s-6.716-15-15-15z"/><path d="m436 331h-60c-8.284 0-15 6.716-15 15s6.716 15 15 15h60c8.284 0 15-6.716 15-15s-6.716-15-15-15z"/><path d="m436 391h-60c-8.284 0-15 6.716-15 15s6.716 15 15 15h60c8.284 0 15-6.716 15-15s-6.716-15-15-15z"/><circle cx="316" cy="226" r="15"/><circle cx="316" cy="286" r="15"/><circle cx="316" cy="346" r="15"/><circle cx="316" cy="406" r="15"/></g></svg>