<svg id="Capa_1" enable-background="new 0 0 512 512" height="512" viewBox="0 0 512 512" width="512" xmlns="http://www.w3.org/2000/svg"><g><path d="m497 302h-121.253v-32h120.253c8.284 0 15-6.716 15-15v-240c0-8.284-6.716-15-15-15h-330c-8.284 0-15 6.716-15 15v46.252c-47.343-.266-47.88-1.353-53.313 2.263-.002.002-.005.003-.007.004l-90 60c-6.278 4.186-8.471 12.384-5.118 19.145l51.966 104.798c-14.005 7.636-23.528 22.495-23.528 39.538v15h-16c-8.284 0-15 6.716-15 15v180c0 8.284 6.716 15 15 15h241c8.284 0 15-6.716 15-15v-165h211v165c0 8.284 6.716 15 15 15s15-6.716 15-15v-180c0-8.284-6.716-15-15-15zm-151.253 0h-30.494v-32h30.494zm-164.747-62v-29h300v29zm-21.87-148.701-38.13 38.344v-38.558zm12.43 30.047 1.998 1.998c5.849 5.849 5.849 15.365 0 21.214-5.861 5.861-15.351 5.864-21.213 0l-1.939-1.939zm9.44-91.346h300v151h-300v-5.84c29.087-12.697 36.048-50.751 13.771-73.029l-2.057-2.057 12.924-12.996c9.359-9.413 2.724-25.502-10.553-25.577l-14.085-.08zm-120 257c0-8.214 6.665-14.997 15.012-14.997.007 0 .015-.001.022-.001 8.256.018 14.966 6.738 14.966 14.998v15h-30zm180 45v60h-211v-60zm-211 150v-60h211v60zm91-180v-15c0-21.429-15.061-39.396-35.15-43.901l-50.548-101.939 55.698-37.132v61.972c0 13.395 16.27 19.995 25.637 10.577l12.615-12.686c1.135.896 8.04 9.669 21.748 13.422v77.687c0 8.284 6.716 15 15 15h119.253v32z"/></g></svg>