<svg id="Capa_1" enable-background="new 0 0 512 512" height="512" viewBox="0 0 512 512" width="512" xmlns="http://www.w3.org/2000/svg"><g><path d="m447 0h-382c-35.841 0-65 29.159-65 65v382c0 35.841 29.159 65 65 65h382c35.841 0 65-29.159 65-65v-382c0-35.841-29.159-65-65-65zm35 447c0 19.299-15.701 35-35 35h-382c-19.299 0-35-15.701-35-35v-382c0-19.299 15.701-35 35-35h382c19.299 0 35 15.701 35 35z"/><path d="m256 271c24.813 0 45-20.187 45-45s-20.187-45-45-45-45 20.187-45 45 20.187 45 45 45zm0-60c8.271 0 15 6.729 15 15s-6.729 15-15 15-15-6.729-15-15 6.729-15 15-15z"/><path d="m436 61h-360c-8.284 0-15 6.716-15 15v360c0 8.284 6.716 15 15 15h360c8.284 0 15-6.716 15-15v-360c0-8.284-6.716-15-15-15zm-195 345h-5c-13.785 0-25-11.215-25-25v-5h5c13.785 0 25 11.215 25 25zm-46.538-190.506c-15.873-16.176-.309-43.201 21.67-37.535 7.916 2.042 16.007-2.631 18.197-10.505 6.072-21.835 37.26-21.87 43.342 0 2.191 7.875 10.284 12.551 18.197 10.505 21.944-5.651 37.57 21.332 21.67 37.535-5.725 5.834-5.725 15.178 0 21.012 15.872 16.174.308 43.205-21.67 37.535-7.917-2.048-16.007 2.63-18.197 10.505-6.072 21.835-37.26 21.87-43.342 0-2.2-7.907-10.32-12.54-18.197-10.505-21.942 5.66-37.569-21.333-21.67-37.535 5.725-5.834 5.725-15.178 0-21.012zm106.538 165.506c0 13.785-11.215 25-25 25h-5v-5c0-13.785 11.215-25 25-25h5zm120 40h-107.31c10.645-10.036 17.31-24.25 17.31-40v-20c0-8.284-6.716-15-15-15-14.474.844-27.831-2.766-45 6.035v-23.244c12.79-3.84 23.749-12.463 30.461-24.05 40.373-.058 65.619-43.706 45.461-78.741 20.135-34.995-5.044-78.686-45.461-78.741-20.24-34.934-70.659-34.975-90.923 0-40.374.058-65.618 43.706-45.461 78.741-20.137 35 5.044 78.686 45.461 78.741 6.713 11.586 17.671 20.21 30.461 24.05v23.244c-17.373-8.906-31.247-5.233-45-6.035-8.284 0-15 6.716-15 15v20c0 15.75 6.665 29.964 17.31 40h-107.309v-330h330z"/></g></svg>