<svg id="Capa_1" enable-background="new 0 0 512 512" height="512" viewBox="0 0 512 512" width="512" xmlns="http://www.w3.org/2000/svg"><g><path d="m439.471 342.724c43.556-38.618 68.989-76.854 70.05-78.464 3.305-5.011 3.305-11.509 0-16.52-1.062-1.609-26.494-39.846-70.05-78.464-119.064-105.565-247.789-105.642-366.941 0-43.556 38.618-68.989 76.854-70.05 78.464-3.305 5.011-3.305 11.509 0 16.52 1.062 1.609 26.494 39.846 70.05 78.464 123.993 109.934 252.693 101.293 366.941 0zm39.11-86.729c-11.358 15.274-38.569 49.104-77.018 79.201 26.889-49.538 26.647-109.798-1.049-159.273 29.396 22.746 57.179 51.936 78.067 80.072zm-222.581-44.995c25.089 0 45.5 20.411 45.5 45.5s-20.411 45.5-45.5 45.5-45.5-20.411-45.5-45.5 20.411-45.5 45.5-45.5zm74.088 60h60.635c-6.732 62.989-56.802 113.204-119.723 120.166v-60.667c29.785-6.029 53.255-29.645 59.088-59.499zm-.195-30c-6.156-29.382-29.441-52.538-58.893-58.499v-60.667c62.588 6.926 112.455 56.646 119.608 119.166zm-88.893-119.166v60.667c-29.452 5.961-52.737 29.117-58.893 58.499h-60.715c7.153-62.52 57.02-112.24 119.608-119.166zm-59.088 149.166c5.833 29.854 29.303 53.47 59.088 59.499v60.667c-62.921-6.962-112.991-57.177-119.723-120.166zm-148.493-14.995c11.454-15.404 39.034-49.68 78.003-79.967-27.3 48.859-28.188 109.127-.931 159.259-29.116-22.695-56.526-51.614-77.072-79.292z"/><path d="m15 150c8.284 0 15-6.716 15-15v-45h45c8.284 0 15-6.716 15-15s-6.716-15-15-15h-60c-8.284 0-15 6.716-15 15v60c0 8.284 6.716 15 15 15z"/><path d="m497 60h-60c-8.284 0-15 6.716-15 15s6.716 15 15 15h45v45c0 8.284 6.716 15 15 15s15-6.716 15-15v-60c0-8.284-6.716-15-15-15z"/><path d="m497 362c-8.284 0-15 6.716-15 15v45h-45c-8.284 0-15 6.716-15 15s6.716 15 15 15h60c8.284 0 15-6.716 15-15v-60c0-8.284-6.716-15-15-15z"/><path d="m75 422h-45v-45c0-8.284-6.716-15-15-15s-15 6.716-15 15v60c0 8.284 6.716 15 15 15h60c8.284 0 15-6.716 15-15s-6.716-15-15-15z"/></g></svg>