<svg id="Capa_1" enable-background="new 0 0 512 512" height="512" viewBox="0 0 512 512" width="512" xmlns="http://www.w3.org/2000/svg"><g><path d="m497 0h-482c-8.284 0-15 6.716-15 15v362c0 8.284 6.716 15 15 15h166v18.192c0 14.783-12.026 26.808-26.808 26.808h-18.192c-8.284 0-15 6.716-15 15v45c0 8.284 6.716 15 15 15h240c8.284 0 15-6.716 15-15v-45c0-8.284-6.716-15-15-15h-18.192c-14.782 0-26.808-12.025-26.808-26.808v-18.192h166c8.284 0 15-6.716 15-15v-362c0-8.284-6.716-15-15-15zm-15 30v241h-452v-241zm-124.192 437h3.192v15h-210v-15h3.192c31.324 0 56.808-25.483 56.808-56.808v-18.192h90v18.192c0 31.325 25.484 56.808 56.808 56.808zm-327.808-105v-61h452v61c-14.724 0-430.179 0-452 0z"/><path d="m76 241h181c8.284 0 15-6.716 15-15v-151c0-8.284-6.716-15-15-15h-181c-8.284 0-15 6.716-15 15v151c0 8.284 6.716 15 15 15zm15-38.787 45.5-45.5 54.287 54.287h-99.787zm142.213 8.787-36-36 18.787-18.787 26 26v28.787zm8.787-121v49.787l-15.394-15.394c-5.857-5.857-15.355-5.857-21.213 0l-29.393 29.394-28.894-28.894c-5.857-5.857-15.355-5.857-21.213 0l-34.893 34.894v-69.787z"/><path d="m316 179h120c8.284 0 15-6.716 15-15v-90c0-8.284-6.716-15-15-15h-120c-8.284 0-15 6.716-15 15v90c0 8.284 6.716 15 15 15zm46.528-30 58.472-42.342v42.342zm31.706-60-63.234 45.79v-45.79z"/><path d="m316 241h120c8.284 0 15-6.716 15-15s-6.716-15-15-15h-120c-8.284 0-15 6.716-15 15s6.716 15 15 15z"/></g></svg>