<svg id="Capa_1" enable-background="new 0 0 512 512" height="512" viewBox="0 0 512 512" width="512" xmlns="http://www.w3.org/2000/svg"><g><path d="m497 120c8.284 0 15-6.716 15-15v-60c0-8.284-6.716-15-15-15h-60c-8.284 0-15 6.716-15 15v15h-332v-15c0-8.284-6.716-15-15-15h-60c-8.284 0-15 6.716-15 15v60c0 8.284 6.716 15 15 15h15v272h-15c-8.284 0-15 6.716-15 15v60c0 8.284 6.716 15 15 15h60c8.284 0 15-6.716 15-15v-15h332v15c0 8.284 6.716 15 15 15h60c8.284 0 15-6.716 15-15v-60c0-8.284-6.716-15-15-15h-15v-272zm-45-60h30v30h-30zm-422 0h30v30h-30zm30 392h-30v-30h30zm422 0h-30v-30h30zm-30-60h-15c-8.284 0-15 6.716-15 15v15h-332v-15c0-8.284-6.716-15-15-15h-15v-272h15c8.284 0 15-6.716 15-15v-15h332v15c0 8.284 6.716 15 15 15h15z"/><path d="m181.25 150c-33.084 0-60 26.916-60 60v136c0 8.284 6.716 15 15 15s15-6.716 15-15v-75h60v75c0 8.284 6.716 15 15 15s15-6.716 15-15v-136c0-33.084-26.916-60-60-60zm-30 91v-31c0-16.542 13.458-30 30-30s30 13.458 30 30v31z"/><path d="m331.003 150h-45.753c-8.284 0-15 6.716-15 15v180c0 8.284 6.716 15 15 15h45.253c54.919 0 80.412-67.932 39.831-104.283 41.102-36.055 16.153-105.717-39.331-105.717zm-.5 180h-30.253v-59.156c40.089-.449 27.855-.338 30.264-.338 16.335 0 29.736 13.218 29.736 29.747 0 16.402-13.345 29.747-29.747 29.747zm30.234-118.923c-.179 16.04-13.372 29.235-29.412 29.415l-31.075.35v-60.842h30.753c16.569 0 29.929 13.5 29.745 30.083z"/></g></svg>