<svg id="Capa_1" enable-background="new 0 0 512 512" height="512" viewBox="0 0 512 512" width="512" xmlns="http://www.w3.org/2000/svg"><g><path d="m463.819 122.606-42.426-42.426c-5.857-5.857-15.355-5.857-21.213 0l-40.648 40.648c-17.792-11.191-37.507-19.592-58.532-24.578v-10.25c0-5.514 4.486-10 10-10 8.284 0 15-6.716 15-15v-46c0-8.284-6.716-15-15-15h-110c-8.284 0-15 6.716-15 15v46c0 8.284 6.716 15 15 15 5.514 0 10 4.486 10 10v10.25c-21.025 4.986-40.74 13.386-58.532 24.579l-40.648-40.648c-5.857-5.857-15.355-5.857-21.213 0l-42.426 42.426c-5.858 5.857-5.858 15.355 0 21.213l41.11 41.11c-37.968 62.393-38.064 141.881 1.709 204.875v107.195c0 8.284 6.716 15 15 15h59c8.284 0 15-6.716 15-15v-31.423c48.406 20.563 103.546 20.584 152 0v31.423c0 8.284 6.716 15 15 15h59c8.284 0 15-6.716 15-15v-107.195c39.774-62.997 39.676-142.484 1.709-204.876l41.11-41.11c5.859-5.857 5.859-15.355 0-21.213zm-247.819-73.688v-18.918h80v18.918c-14.646 5.946-25 20.327-25 37.082v5.571c-9.965-.762-20.031-.762-30 0v-5.571c0-16.755-10.354-31.136-25-37.082zm-136 84.295 21.213-21.213 26.908 26.908c-7.552 6.574-14.588 13.725-21.053 21.372zm70 348.787h-29v-55.424c8.901 8.552 18.611 16.265 29 23.02zm212 0v-32.404c10.389-6.755 20.099-14.468 29-23.02v55.424zm-106-31c-90.981 0-165-74.019-165-165 0-90.648 73.734-165 165-165 91.36 0 165 74.454 165 165 0 90.981-74.019 165-165 165zm148.933-290.72c-6.466-7.648-13.501-14.798-21.053-21.372l26.907-26.908 21.213 21.213z"/><path d="m256 151c-8.284 0-15 6.716-15 15v120c0 8.284 6.716 15 15 15h120c8.284 0 15-6.716 15-15 0-74.439-60.561-135-135-135zm15 120v-88.932c45.917 6.597 82.335 43.015 88.932 88.932z"/><path d="m160.541 190.541c-5.858 5.858-5.858 15.355 0 21.213s15.355 5.858 21.213 0 5.858-15.355 0-21.213-15.356-5.858-21.213 0z"/><circle cx="136" cy="286" r="15"/><path d="m160.541 360.246c-5.858 5.858-5.858 15.355 0 21.213s15.355 5.858 21.213 0 5.858-15.355 0-21.213-15.356-5.858-21.213 0z"/><circle cx="256" cy="406" r="15"/><path d="m330.246 360.246c-5.858 5.858-5.858 15.355 0 21.213s15.355 5.858 21.213 0 5.858-15.355 0-21.213-15.355-5.858-21.213 0z"/></g></svg>