<svg id="Capa_1" enable-background="new 0 0 512 512" height="512" viewBox="0 0 512 512" width="512" xmlns="http://www.w3.org/2000/svg"><g><path d="m371.961 140.71c-64.541-64.129-167.969-63.245-231.548-.629-68.831 67.789-65.225 182.229 11.72 244.932 9.162 7.466 14.416 18.445 14.416 30.124v81.863c0 8.09 6.492 15 15.094 15l148.901-.929c8.248-.052 14.906-6.752 14.906-15v-80.624c0-11.862 5.294-22.988 14.526-30.523 75.139-61.34 81.744-174.897 11.985-244.214zm-175.412 341.196v-43.975h118.901v43.232zm144.456-120.222c-14.277 11.654-23.195 28.209-25.144 46.248h-119.7c-1.887-17.989-10.784-34.528-25.077-46.175-32.388-26.394-50.458-65.486-49.576-107.256 2.51-118.903 146.313-174.976 229.307-92.51 57.111 56.748 51.573 149.584-9.81 199.693z"/><path d="m46 240.932h-31c-8.284 0-15 6.716-15 15s6.716 15 15 15h31c8.284 0 15-6.716 15-15s-6.716-15-15-15z"/><path d="m497 240.932h-31c-8.284 0-15 6.716-15 15s6.716 15 15 15h31c8.284 0 15-6.716 15-15s-6.716-15-15-15z"/><path d="m256 61c8.284 0 15-6.716 15-15v-31c0-8.284-6.716-15-15-15s-15 6.716-15 15v31c0 8.284 6.716 15 15 15z"/><path d="m96.901 118.046c2.93 2.93 6.768 4.394 10.607 4.394 13.244 0 20.082-16.131 10.607-25.606l-21.92-21.921c-5.858-5.859-15.355-5.857-21.213 0s-5.858 15.355 0 21.213z"/><path d="m415.099 393.817c-5.857-5.857-15.355-5.857-21.213 0-5.857 5.857-5.857 15.355 0 21.213l21.92 21.92c5.859 5.859 15.355 5.858 21.213 0 5.857-5.857 5.857-15.355 0-21.213z"/><path d="m96.901 393.817-21.92 21.92c-5.858 5.857-5.858 15.355 0 21.213 5.857 5.857 15.354 5.86 21.213 0l21.92-21.92c5.858-5.857 5.858-15.355 0-21.213s-15.354-5.858-21.213 0z"/><path d="m415.806 74.912-21.92 21.921c-9.478 9.478-2.634 25.606 10.607 25.606 3.839 0 7.678-1.465 10.607-4.394l21.92-21.921c5.857-5.857 5.857-15.355 0-21.213-5.858-5.856-15.356-5.856-21.214.001z"/><path d="m256 153c-57.897 0-105 47.103-105 105s47.103 105 105 105 105-47.103 105-105-47.103-105-105-105zm0 180c-41.355 0-75-33.645-75-75s33.645-75 75-75 75 33.645 75 75-33.645 75-75 75z"/><path d="m265.304 269.751c-9.726 7.732-24.304.823-24.304-11.751 0-12.017 13.456-19.068 23.298-12.484 6.884 4.606 16.201 2.759 20.808-4.127s2.759-16.202-4.127-20.809c-29.58-19.788-69.979 1.34-69.979 37.42 0 37.717 43.736 58.473 72.971 35.235 6.485-5.154 7.564-14.591 2.409-21.076-5.155-6.483-14.59-7.562-21.076-2.408z"/></g></svg>