<svg id="Capa_1" enable-background="new 0 0 512 512" height="512" viewBox="0 0 512 512" width="512" xmlns="http://www.w3.org/2000/svg"><g><path d="m90.999 211h195c8.284 0 15-6.716 15-15v-60c0-8.284-6.716-15-15-15h-195c-8.284 0-15 6.716-15 15v60c0 8.284 6.716 15 15 15zm15-60h165v30h-165z"/><path d="m345.194 311.386c-.058 0-.118 0-.175 0-24.869.095-44.923 20.299-44.827 45.173.095 24.755 20.263 44.829 44.997 44.827h.175c24.813-.095 44.922-20.359 44.827-45.173-.094-24.755-20.262-44.827-44.997-44.827zm.055 60c-.02 0-.039 0-.059 0-8.259 0-14.967-6.668-14.998-14.942-.032-8.291 6.651-15.025 14.942-15.058h.059c8.259 0 14.967 6.668 14.998 14.942.033 8.291-6.65 15.025-14.942 15.058z"/><path d="m489.467 387.188-39.586-22.726c.422-5.48.428-11.112-.063-16.926l39.45-22.906c7.167-4.16 9.603-13.358 5.43-20.521l-30.199-51.846c-3.108-5.336-9.004-8.038-14.77-7.341v-169.307c0-8.284-6.716-15-15-15h-73.999v-45.615c0-8.284-6.716-15-15-15h-315.731c-8.284 0-15 6.716-15 15v422c0 8.284 6.716 15 15 15h75v45c0 8.284 6.716 15 15 15h314.73c8.284 0 15-6.716 15-15v-29.948c6.436 1.075 12.477-2.065 15.488-7.328l29.801-52.076c4.111-7.184 1.626-16.339-5.551-20.46zm-69.738-296.573v170.322l-15.227 8.841c-4.66-3.203-9.556-6.014-14.661-8.418l-.112-45.626c-.02-8.16-6.604-14.963-15.058-14.963l-13.942.053v-110.209zm-374.73-60.615h285.731v170.939l-16.057.062c-8.276.032-14.963 6.761-14.943 15.037l.112 45.654c-5.087 2.441-9.962 5.288-14.598 8.525l-39.59-22.729c-3.453-1.983-7.552-2.512-11.396-1.468-3.843 1.043-7.114 3.57-9.091 7.026l-29.801 52.076c-4.111 7.184-1.626 16.339 5.551 20.459l39.586 22.726c-.435 5.648-.414 11.271.063 16.926l-39.45 22.906c-7.167 4.16-9.603 13.358-5.43 20.521l7.769 13.34h-158.456zm90 422h85.931l4.956 8.508c4.166 7.151 13.336 9.577 20.493 5.422l39.503-22.936c4.66 3.202 9.555 6.013 14.66 8.417l.075 30.589h-165.618zm255.618 30-.076-30.921c5.087-2.441 9.962-5.288 14.598-8.525l14.589 8.375v31.071zm56.022-50.214-35.274-20.25c-5.522-3.169-12.443-2.509-17.266 1.65-7.021 6.056-14.978 10.705-23.65 13.817-5.971 2.143-9.949 7.811-9.933 14.155l.1 40.668-30 .115-.1-40.627c-.016-6.358-4.039-12.017-10.041-14.119-8.696-3.047-16.688-7.635-23.757-13.637-4.848-4.118-11.758-4.723-17.241-1.538l-35.21 20.443-15.1-25.923 35.129-20.397c5.502-3.194 8.39-9.513 7.206-15.764-1.713-9.046-1.75-18.357-.105-27.425 1.133-6.245-1.786-12.527-7.291-15.688l-35.266-20.245 14.9-26.038 35.274 20.25c5.523 3.17 12.444 2.51 17.266-1.65 7.021-6.056 14.978-10.705 23.65-13.817 5.971-2.143 9.949-7.811 9.933-14.155l-.1-40.669c2.621.001 16.31.043 30-.114l.1 40.627c.016 6.358 4.04 12.017 10.041 14.119 8.695 3.047 16.688 7.635 23.756 13.637 4.841 4.113 11.748 4.729 17.242 1.539l35.21-20.444 15.099 25.923-35.129 20.397c-5.502 3.194-8.39 9.513-7.206 15.764 1.712 9.04 1.751 18.357.105 27.424-1.134 6.245 1.786 12.528 7.291 15.688l35.266 20.245z"/><path d="m90.999 91h195c8.284 0 15-6.716 15-15s-6.716-15-15-15h-195c-8.284 0-15 6.716-15 15s6.716 15 15 15z"/><path d="m180.999 241h-90c-8.284 0-15 6.716-15 15s6.716 15 15 15h90c8.284 0 15-6.716 15-15s-6.716-15-15-15z"/><path d="m150.999 301h-60c-8.284 0-15 6.716-15 15s6.716 15 15 15h60c8.284 0 15-6.716 15-15s-6.716-15-15-15z"/><path d="m150.999 361h-60c-8.284 0-15 6.716-15 15s6.716 15 15 15h60c8.284 0 15-6.716 15-15s-6.716-15-15-15z"/></g></svg>