<svg id="Capa_1" enable-background="new 0 0 511.417 511.417" height="512" viewBox="0 0 511.417 511.417" width="512" xmlns="http://www.w3.org/2000/svg"><g><path d="m482.314 206.782-2.736-29.875-31.839 2.915 12.416-22.907-26.375-14.295-17.611 32.493c-13.351-4.467-28.25-4.081-42.097.318-14.869 4.347-27.545-7.098-37.315-16.701l-20.062 22.304c44.822 45.508 65.895 13.222 90.594 22.936l36.215 44.848 23.34-18.848-16.369-20.271z" fill="#56975d"/><path d="m174.468 91.761 5.305-49.806-29.832-3.177-2.759 25.909-24.575-20.453-19.191 23.059 24.575 20.453-24.977 7.418 8.541 28.759 38.471-11.426c16.17 35.475 52.25 31.255 88.23 45.569l9.926-28.311c-52.768-18.498-67.157-11.122-73.714-37.994z" fill="#76d081"/><path d="m227.384 217.335c-57.935-58.496-92.15-82.701-104.845-31.276-3.267 11.294 13.562 58.957 21.662 85.854-24.044-26.597-36.514-40.257-42.952-47.251l4.612-43.306-29.832-3.177-2.759 25.909-24.575-20.453-19.191 23.059 24.575 20.453-24.977 7.417 8.541 28.759 45.867-13.623c55.397 60.504 64.05 74.683 79.515 74.681 43.653-.829-5.623-91.609-10.768-133.429 18.638 12.309 30.664 24.808 53.869 47.551z" fill="#76d081"/><path d="m335.216 456.97-8.541-28.759-38.383 11.4c-5.616-12.474-13.561-31.567-14.627-33.897-4.713-9.321 1.612-21.503 11.958-22.979 32.315-4.52 49.613-45.123 30.486-71.561l-45.138-66.545-24.828 16.841 45.138 66.545c6.764 9.271.656 23.604-10.713 25.149-29.047 4.151-47.14 38.074-34.417 64.508 1.715 3.831 11.842 28.282 17.806 40.782l-5.493 49.665 29.818 3.298 2.66-24.057 24.68 20.54 19.191-23.059-24.575-20.453z" fill="#56975d"/><path d="m196.901 263.693c-5.569-36.845 35.161-104.774 33.311-135.341 1.52-18.605 4.416-35.427 8.232-52.606 6.934-1.356 17.887-2.96 17.492-12.321.53-5.341-11.208-10.048-9.374-14.384 20.301-48.014 73.344-56.641 94.032.918-2.55 3.992-7.65 7.875-7.578 13.466-.469 8.453 9.242 10.798 15.556 12.705 10.836 47.615 6.072 92.593-24.69 135.925-22.846 30.732-46.939 63.635-85.48 73.731-25.028 6.558-38.956-5.257-41.501-22.093z" fill="#ade993"/><path d="m330.882 212.055c30.762-43.332 35.526-88.31 24.69-135.925-6.314-1.907-16.024-4.252-15.556-12.705-.072-5.591 5.027-9.474 7.578-13.466-20.688-57.559-70.396-74.741-101.032-.918 2.944 3.672 9.904 9.043 9.374 14.383.274 6.502-4.926 9.26-10.45 10.794v209.405c34.599-12.033 64.025-42.82 85.396-71.568z" fill="#76d081"/><path d="m245.486 33.425c40.003.673 39.996 59.332-.002 60-40.002-.674-39.995-59.332.002-60" fill="#76d081"/><g fill="#56975d"><path d="m245.486 33.425v60c39.996-.669 40.002-59.327 0-60z"/><path d="m350.486 33.425c40.003.673 39.996 59.332-.002 60-40.002-.674-39.995-59.332.002-60"/></g></g></svg>